<svg width="16" height="16" viewBox="0 0 16 16" fill="none" xmlns="http://www.w3.org/2000/svg">
<g clip-path="url(#clip0_273_4620)">
<path d="M5.70634 1.83334C8.61967 5.85334 9.71967 8.11334 11.0597 13.6467M12.753 3.39334C10.273 6.29334 6.79301 7.16668 1.49967 7.29334M14.4997 8.56001C12.1663 7.94001 10.0797 8.01334 8.53967 8.56001C6.81967 9.17334 5.19967 10.4667 3.57967 12.7733M14.6663 8.00001C14.6663 11.6819 11.6816 14.6667 7.99967 14.6667C4.31778 14.6667 1.33301 11.6819 1.33301 8.00001C1.33301 4.31811 4.31778 1.33334 7.99967 1.33334C11.6816 1.33334 14.6663 4.31811 14.6663 8.00001Z" stroke="#55597D" stroke-width="1.5" stroke-linecap="round" stroke-linejoin="round"/>
</g>
<defs>
<clipPath id="clip0_273_4620">
<rect width="16" height="16" fill="white"/>
</clipPath>
</defs>
</svg>
