<svg width="16" height="16" viewBox="0 0 16 16" fill="none" xmlns="http://www.w3.org/2000/svg">
<g clip-path="url(#clip0_273_4605)">
<path d="M6.10841 13.3359C2.69741 14.3346 2.69741 11.6713 1.33301 11.3384M10.8838 14.6667V12.7566C10.9094 12.4391 10.8655 12.12 10.7549 11.8203C10.6443 11.5207 10.4697 11.2475 10.2426 11.0188C11.3261 10.901 12.4376 10.64 13.2715 9.94029C14.9667 8.51801 15.1602 5.44782 13.6126 3.8613C13.7597 3.4766 13.8323 3.07274 13.8309 2.66948C13.8297 2.33539 13.7778 2.00171 13.6753 1.67968C13.6399 1.56863 13.5986 1.45898 13.5512 1.35117C13.5512 1.35117 13.4312 1.31643 13.1767 1.34391C12.9327 1.37024 12.5652 1.45372 12.0614 1.67968C11.7293 1.8286 11.338 2.03943 10.8838 2.33658C10.102 2.12978 9.29907 2.02638 8.49612 2.02638C7.69316 2.02638 6.89021 2.12978 6.10841 2.33658C5.68197 2.05758 5.31096 1.85469 4.99236 1.70767C4.60747 1.53006 4.29907 1.43401 4.06181 1.38385C3.63777 1.29421 3.44101 1.35117 3.44101 1.35117C3.25635 1.77164 3.1629 2.22019 3.16133 2.66948C3.15991 3.07274 3.23251 3.4766 3.37961 3.8613C1.91703 5.36062 2.01525 8.17909 3.44101 9.67772C4.29523 10.5756 5.53986 10.8922 6.74968 11.0388C6.52524 11.2652 6.35214 11.5351 6.24165 11.8311C6.13117 12.127 6.08577 12.4424 6.10841 12.7566V14.6667" stroke="#55597D" stroke-width="1.5" stroke-linecap="round" stroke-linejoin="round"/>
</g>
<defs>
<clipPath id="clip0_273_4605">
<rect width="16" height="16" fill="white"/>
</clipPath>
</defs>
</svg>
