<svg width="16" height="16" viewBox="0 0 16 16" fill="none" xmlns="http://www.w3.org/2000/svg">
<g clip-path="url(#clip0_273_4614)">
<path d="M11.6663 4.33334H11.673M4.66634 1.33334H11.333C13.174 1.33334 14.6663 2.82573 14.6663 4.66668V11.3333C14.6663 13.1743 13.174 14.6667 11.333 14.6667H4.66634C2.82539 14.6667 1.33301 13.1743 1.33301 11.3333V4.66668C1.33301 2.82573 2.82539 1.33334 4.66634 1.33334ZM10.6663 7.58001C10.7486 8.13484 10.6539 8.70148 10.3955 9.19935C10.1372 9.69722 9.72845 10.1009 9.22743 10.3531C8.72642 10.6053 8.15865 10.6931 7.60487 10.604C7.0511 10.5149 6.53952 10.2534 6.14291 9.85678C5.74629 9.46017 5.48484 8.94859 5.39573 8.39482C5.30662 7.84104 5.39439 7.27327 5.64657 6.77226C5.89874 6.27124 6.30247 5.8625 6.80034 5.60417C7.2982 5.34584 7.86485 5.25107 8.41968 5.33334C8.98563 5.41726 9.50958 5.68098 9.91414 6.08554C10.3187 6.49011 10.5824 7.01406 10.6663 7.58001Z" stroke="#55597D" stroke-width="1.5" stroke-linecap="round" stroke-linejoin="round"/>
</g>
<defs>
<clipPath id="clip0_273_4614">
<rect width="16" height="16" fill="white"/>
</clipPath>
</defs>
</svg>
