<svg width="16" height="16" viewBox="0 0 16 16" fill="none" xmlns="http://www.w3.org/2000/svg">
<path d="M13.4948 6.50492C12.7446 5.75477 11.7272 5.33334 10.6663 5.33334C9.60547 5.33334 8.58806 5.75477 7.83791 6.50492C7.08777 7.25506 6.66634 8.27248 6.66634 9.33334V14H9.33301V9.33334C9.33301 8.97972 9.47348 8.64058 9.72353 8.39053C9.97358 8.14049 10.3127 8.00001 10.6663 8.00001C11.02 8.00001 11.3591 8.14049 11.6091 8.39053C11.8592 8.64058 11.9997 8.97972 11.9997 9.33334V14H14.6663V9.33334C14.6663 8.27248 14.2449 7.25506 13.4948 6.50492Z" stroke="#55597D" stroke-width="1.5" stroke-linecap="round" stroke-linejoin="round"/>
<path d="M3.99967 6.00001H1.33301V14H3.99967V6.00001Z" stroke="#55597D" stroke-width="1.5" stroke-linecap="round" stroke-linejoin="round"/>
<path d="M2.66634 4.00001C3.40272 4.00001 3.99967 3.40306 3.99967 2.66668C3.99967 1.9303 3.40272 1.33334 2.66634 1.33334C1.92996 1.33334 1.33301 1.9303 1.33301 2.66668C1.33301 3.40306 1.92996 4.00001 2.66634 4.00001Z" stroke="#55597D" stroke-width="1.5" stroke-linecap="round" stroke-linejoin="round"/>
</svg>
