<svg width="16" height="16" viewBox="0 0 16 16" fill="none" xmlns="http://www.w3.org/2000/svg">
<g clip-path="url(#clip0_273_4611)">
<path d="M13.2403 3.01999C13.9884 2.79473 14.6952 2.45031 15.3337 1.99999C15.1075 2.92847 14.6274 3.77565 13.947 4.44666C13.9819 4.62905 13.9997 4.81429 14.0003 4.99999C14.0003 12.6667 6.66699 16 0.666992 12.6667C2.3251 12.7326 3.96068 12.2653 5.33366 11.3333C1.10842 9.45544 1.18104 5.92454 1.59368 4C1.76701 3.19162 2.00033 2.66666 2.00033 2.66666C2.32911 3.13482 2.71192 3.55975 3.13943 3.93339C3.58772 4.32518 4.08516 4.66058 4.621 4.93029C5.66784 5.4572 6.82875 5.71704 8.00033 5.68666V5.01999C7.99212 4.40821 8.17201 3.80868 8.51565 3.30247C8.85929 2.79626 9.3501 2.4078 9.92171 2.18963C10.4933 1.97145 11.1181 1.9341 11.7117 2.08261C12.3052 2.23112 12.8388 2.55833 13.2403 3.01999Z" stroke="#55597D" stroke-width="1.5" stroke-linecap="round" stroke-linejoin="round"/>
</g>
<defs>
<clipPath id="clip0_273_4611">
<rect width="16" height="16" fill="white"/>
</clipPath>
</defs>
</svg>
