<svg width="114" height="137" viewBox="0 0 114 137" fill="none" xmlns="http://www.w3.org/2000/svg">
<path d="M86.1739 47.1474H113.999L81.8999 15.002V42.8672C81.8999 45.2257 83.8189 47.1474 86.1739 47.1474Z" fill="#42BBFF"/>
<path d="M85.6357 49.1633C81.3814 49.1633 77.9613 45.6865 77.9613 41.3618V12.5303H19.5697C17.1506 12.5303 15.2321 14.4806 15.2321 17.0246V47.7217H42.259C42.7595 47.7217 43.0932 47.2977 43.0932 46.8737V41.701C43.0932 40.9378 43.9274 40.5138 44.4279 41.0226L57.4409 51.0288C57.858 51.368 57.858 52.0464 57.4409 52.3856L44.4279 62.4766C43.9274 62.9006 43.0932 62.4766 43.0932 61.7982V56.5407C43.0932 56.1167 42.7595 55.6927 42.259 55.6927H15.2321V68.9213H57.858C58.275 68.9213 58.6921 68.5821 58.6921 68.0733V62.9006C58.6921 62.2222 59.4428 61.7982 60.0268 62.2222L72.9563 72.2284C73.4568 72.6524 73.4568 73.3308 72.9563 73.67L60.0268 83.6763C59.4428 84.1003 58.6921 83.6763 58.6921 82.9979V77.8252C58.6921 77.3164 58.275 76.9772 57.858 76.9772H15.2321V90.2058H73.3734C73.8739 90.2058 74.2076 89.7818 74.2076 89.3578V84.1003C74.2076 83.4219 75.0418 82.9979 75.6257 83.4219L88.5552 93.5129C88.9723 93.8521 88.9723 94.5305 88.5552 94.8697L75.6257 104.876C75.0418 105.385 74.2076 104.961 74.2076 104.198V99.0248C74.2076 98.6008 73.8739 98.1768 73.3734 98.1768H15.2321V111.405H88.9723C89.3894 111.405 89.8065 111.066 89.8065 110.557V105.385C89.8065 104.622 90.6406 104.282 91.1411 104.706L104.071 114.713C104.571 115.052 104.571 115.73 104.071 116.069L91.1411 126.16C90.6406 126.584 89.8065 126.16 89.8065 125.482V120.309C89.8065 119.8 89.3894 119.376 88.9723 119.376H15.2321V131.672C15.2321 134.216 17.1506 136.167 19.5697 136.167H109.66C112.079 136.167 113.997 134.216 113.997 131.672V49.1633H85.6357Z" fill="url(#paint0_linear_595_9152)"/>
<path d="M9.76771 6.05015H79.4288V0.166748H8.56663C4.10558 0.166748 0.416626 3.74794 0.416626 8.26706V123.803H6.33612V9.46081C6.33612 7.58495 7.88034 6.05015 9.76771 6.05015Z" fill="#2E3757"/>
<defs>
<linearGradient id="paint0_linear_595_9152" x1="15.2321" y1="65.1902" x2="113.997" y2="65.1902" gradientUnits="userSpaceOnUse">
<stop stop-color="#43B7FE"/>
<stop offset="1" stop-color="#4F48E6"/>
</linearGradient>
</defs>
</svg>
