<svg width="16" height="16" viewBox="0 0 16 16" fill="none" xmlns="http://www.w3.org/2000/svg">
<g clip-path="url(#clip0_561_9376)">
<mask id="mask0_561_9376" style="mask-type:luminance" maskUnits="userSpaceOnUse" x="0" y="0" width="16" height="16">
<path d="M16 0H0V16H16V0Z" fill="white"/>
</mask>
<g mask="url(#mask0_561_9376)">
<path d="M6.1089 13.3359C2.6979 14.3346 2.6979 11.6713 1.3335 11.3384M10.8843 14.6667V12.7566C10.9099 12.4391 10.8659 12.12 10.7554 11.8203C10.6448 11.5207 10.4702 11.2475 10.243 11.0188C11.3266 10.901 12.4381 10.64 13.272 9.94027C14.9671 8.51799 15.1607 5.4478 13.6131 3.86128C13.7602 3.47658 13.8328 3.07272 13.8314 2.66946C13.8302 2.33537 13.7782 2.00169 13.6758 1.67966C13.6404 1.56861 13.5991 1.45896 13.5517 1.35115C13.5517 1.35115 13.4317 1.31641 13.1772 1.34389C12.9332 1.37022 12.5657 1.4537 12.0619 1.67966C11.7298 1.82858 11.3385 2.03941 10.8843 2.33656C10.1025 2.12976 9.29956 2.02636 8.49661 2.02636C7.69365 2.02636 6.8907 2.12976 6.1089 2.33656C5.68245 2.05756 5.31145 1.85467 4.99285 1.70765C4.60796 1.53004 4.29955 1.43399 4.0623 1.38383C3.63826 1.29419 3.4415 1.35115 3.4415 1.35115C3.25684 1.77162 3.16339 2.22017 3.16182 2.66946C3.1604 3.07272 3.233 3.47658 3.3801 3.86128C1.91751 5.3606 2.01574 8.17907 3.4415 9.6777C4.29572 10.5756 5.54035 10.8922 6.75017 11.0388C6.52573 11.2652 6.35263 11.5351 6.24214 11.8311C6.13166 12.127 6.08626 12.4424 6.1089 12.7566V14.6667" stroke="#55597D" stroke-width="1.5" stroke-linecap="round" stroke-linejoin="round"/>
</g>
</g>
<defs>
<clipPath id="clip0_561_9376">
<rect width="16" height="16" fill="white"/>
</clipPath>
</defs>
</svg>
