<svg width="21" height="24" viewBox="0 0 21 24" fill="none" xmlns="http://www.w3.org/2000/svg">
<path d="M15.1691 8.2908H20.0909L14.4131 2.61808V7.53547C14.4131 7.95168 14.7525 8.2908 15.1691 8.2908Z" fill="#42BBFF"/>
<path d="M15.0741 8.64647C14.3216 8.64647 13.7166 8.03292 13.7166 7.26974V2.18182H3.38788C2.95998 2.18182 2.62061 2.526 2.62061 2.97493V8.39207H7.40132C7.48986 8.39207 7.54888 8.31725 7.54888 8.24243V7.32959C7.54888 7.19491 7.69643 7.12009 7.78496 7.20988L10.0868 8.97568C10.1606 9.03554 10.1606 9.15526 10.0868 9.21512L7.78496 10.9959C7.69643 11.0707 7.54888 10.9959 7.54888 10.8762V9.94837C7.54888 9.87355 7.48986 9.79873 7.40132 9.79873H2.62061V12.1332H10.1606C10.2343 12.1332 10.3081 12.0733 10.3081 11.9835V11.0707C10.3081 10.951 10.4409 10.8762 10.5442 10.951L12.8313 12.7168C12.9198 12.7916 12.9198 12.9113 12.8313 12.9712L10.5442 14.737C10.4409 14.8118 10.3081 14.737 10.3081 14.6173V13.7045C10.3081 13.6147 10.2343 13.5548 10.1606 13.5548H2.62061V15.8893H12.905C12.9936 15.8893 13.0526 15.8144 13.0526 15.7396V14.8118C13.0526 14.6921 13.2002 14.6173 13.3034 14.6921L15.5905 16.4729C15.6643 16.5327 15.6643 16.6525 15.5905 16.7123L13.3034 18.4781C13.2002 18.5679 13.0526 18.4931 13.0526 18.3584V17.4456C13.0526 17.3707 12.9936 17.2959 12.905 17.2959H2.62061V19.6304H15.6643C15.7381 19.6304 15.8118 19.5705 15.8118 19.4807V18.5679C15.8118 18.4332 15.9594 18.3734 16.0479 18.4482L18.335 20.214C18.4235 20.2739 18.4235 20.3936 18.335 20.4534L16.0479 22.2342C15.9594 22.309 15.8118 22.2342 15.8118 22.1145V21.2016C15.8118 21.1119 15.7381 21.037 15.6643 21.037H2.62061V23.2069C2.62061 23.6558 2.95998 24 3.38788 24H19.3236C19.7515 24 20.0909 23.6558 20.0909 23.2069V8.64647H15.0741Z" fill="url(#paint0_linear_589_7509)"/>
<path d="M1.65408 1.03825H13.9762V0H1.44163C0.652527 0 0 0.631975 0 1.42947V21.8182H1.04708V1.64013C1.04708 1.30909 1.32023 1.03825 1.65408 1.03825Z" fill="#2E3757"/>
<defs>
<linearGradient id="paint0_linear_589_7509" x1="2.62061" y1="11.4748" x2="20.0909" y2="11.4748" gradientUnits="userSpaceOnUse">
<stop stop-color="#43B7FE"/>
<stop offset="1" stop-color="#4F48E6"/>
</linearGradient>
</defs>
</svg>
