<svg width="23" height="16" viewBox="0 0 23 16" fill="none" xmlns="http://www.w3.org/2000/svg">
<path fill-rule="evenodd" clip-rule="evenodd" d="M3.92924 15.9234H4.43501V13.2055H3.85143L2.9566 14.3922L2.10067 13.2055H1.51709V15.9234H2.02286V13.9329L2.91769 15.1196H2.9955L3.92924 13.9711V15.9234ZM18.5578 13.2055H17.9353L18.9857 14.8133V15.9234H19.4915V14.8133L20.6198 13.2055H19.9973L19.2581 14.3157L18.5578 13.2055ZM17.8575 15.8852L17.0404 14.9664C17.5462 14.8516 17.7407 14.4688 17.7407 14.086C17.7407 13.6266 17.3906 13.2055 16.7292 13.2055C16.3012 13.2055 15.8344 13.2055 15.4064 13.2055V15.9234H15.9511V15.0047H16.4569L17.235 15.9234H17.8575V15.8852ZM16.7292 13.6649C17.0404 13.6649 17.1961 13.8946 17.1961 14.1243C17.1961 14.3539 17.0793 14.5453 16.7292 14.5453H15.9511V13.6649H16.7292ZM15.0173 15.4258H13.4611V14.8133H14.9395V14.3157H13.4611V13.7032H15.0173V13.2055H12.9164C12.9164 14.1243 12.9164 15.0047 12.9164 15.9234H15.0173V15.4258ZM11.2046 15.9234H11.7493V13.6649H12.6052V13.2055C11.8271 13.2055 11.1268 13.2055 10.3487 13.2055V13.6649H11.2046V15.9234ZM9.99852 13.6649C9.80399 13.2438 9.37603 13.129 8.90916 13.129C8.40339 13.129 7.85871 13.3587 7.85871 13.8946C7.85871 14.5071 8.36448 14.6602 8.94806 14.7368C9.29821 14.775 9.57055 14.8899 9.57055 15.1196C9.57055 15.4258 9.25931 15.5406 8.94806 15.5406C8.59791 15.5406 8.28667 15.4258 8.16995 15.1196L7.74199 15.311C7.93652 15.8086 8.36448 16 8.94806 16C9.57055 16 10.1152 15.732 10.1152 15.1196C10.1152 14.4688 9.57055 14.3157 8.98697 14.2774C8.63682 14.2391 8.36448 14.1625 8.36448 13.9329C8.36448 13.7032 8.55901 13.5501 8.94806 13.5501C9.25931 13.5501 9.49274 13.7032 9.60946 13.8563L9.99852 13.6649ZM7.1195 15.9234H7.70308L6.4581 13.2055H5.87452L4.62954 15.9234H5.21312L5.44656 15.4258H6.88607L7.1195 15.9234ZM6.69154 14.9282H5.64109L6.18576 13.7797L6.69154 14.9282Z" fill="#55597D"/>
<path fill-rule="evenodd" clip-rule="evenodd" d="M17.2743 3.59712C16.574 2.18074 15.0956 1.75965 13.6561 1.75965C12.9558 1.75965 12.2555 1.91277 11.6719 2.14246C11.2828 2.41042 11.0105 2.67838 10.8549 2.86979C10.9716 2.37214 11.2439 2.02761 11.6719 1.79793V0.726074C9.92114 0.726074 8.63725 0.726074 6.9254 0.726074V2.52526H9.6877V6.62128C9.6877 8.19079 9.29865 9.41576 7.50899 9.41576C5.95276 9.41576 5.09684 8.72672 4.94122 7.34861H2.95703C3.22937 9.87513 5.05793 11.215 7.50899 11.215C8.71506 11.215 9.29865 10.9087 9.99895 10.3345C9.88223 10.1048 9.80442 9.87513 9.76551 9.56889C9.88223 9.72201 10.0379 9.91341 10.1935 10.1431C10.9716 11.1001 12.2166 11.4446 13.695 11.4446C14.2397 11.4446 14.7454 11.4064 15.2123 11.2532L14.512 10.8321L13.4226 10.2197V9.91341C12.5278 9.83685 11.6719 9.45405 11.2439 8.72672C11.4774 8.15251 11.633 7.46346 11.633 6.73612C12.2555 6.96581 12.9558 7.11893 13.695 7.19549C13.8895 7.23377 14.084 7.23377 14.2786 7.27205L14.512 7.15721L15.6014 6.54472L16.6907 7.15721L17.4299 7.5783C16.9631 6.2002 15.4457 5.81739 13.8506 5.62599C12.7223 5.51115 11.7886 5.28146 11.7886 4.47757C11.7886 3.78852 12.4111 3.25259 13.695 3.25259C14.7065 3.25259 15.5625 3.75024 15.9126 4.28617L17.2743 3.59712Z" fill="#55597D"/>
<path fill-rule="evenodd" clip-rule="evenodd" d="M18.6748 11.5978C19.3362 11.6744 20.1143 11.6361 20.5812 11.1767C21.0091 10.7556 21.1259 10.1431 21.1259 9.56893V7.61662C21.1259 6.851 21.3982 6.2768 22.0985 6.16195V5.4729C21.3982 5.35806 21.1259 4.74557 21.1259 4.01824V2.06593C21.1259 1.49172 21.0091 0.840954 20.5812 0.458149C20.1143 -0.0394989 19.3362 -0.0394989 18.6748 0.0370622V0.726113C19.5696 0.649552 19.9587 1.1472 19.9587 2.14249V4.01824C19.9587 4.32449 19.9198 4.78385 20.0365 5.0901C20.1921 5.39634 20.5812 5.62603 20.9313 5.81743C20.5812 6.00883 20.1921 6.23852 20.0365 6.54476C19.9198 6.851 19.9587 7.31037 19.9587 7.61662V9.49236C19.9587 10.5642 19.6085 10.9087 18.6748 10.8705V11.5978Z" fill="#55597D"/>
<path fill-rule="evenodd" clip-rule="evenodd" d="M15.6015 5.97076L16.9243 6.73638L18.2471 7.46371V8.99493V10.5262L16.9243 11.2918L15.6015 12.0574L14.2398 11.2918L12.917 10.5262V8.99493V7.46371L14.2398 6.73638L15.6015 5.97076ZM15.6015 6.54497L16.6908 7.15746L17.7413 7.76995V8.99493V10.2199L16.6908 10.8324L15.6015 11.4832L14.5121 10.8324L13.4228 10.2199V8.99493V7.76995L14.5121 7.15746L15.6015 6.54497Z" fill="url(#paint0_linear_561_9585)"/>
<path fill-rule="evenodd" clip-rule="evenodd" d="M14.0448 9.26254V9.64535H13.7725V8.34381C13.967 8.34381 14.1615 8.34381 14.395 8.34381C15.0174 8.34381 15.0174 9.26254 14.395 9.26254H14.0448ZM15.4454 9.22426H15.2509V9.64535H14.9785V8.34381H15.0174C15.212 8.34381 15.4065 8.34381 15.601 8.34381C15.8734 8.34381 16.0679 8.49693 16.0679 8.80318C16.0679 8.99458 15.9901 9.1477 15.7956 9.18598L16.1457 9.60707V9.64535H15.8345L15.4454 9.22426ZM16.8071 8.34381C17.2351 8.34381 17.5074 8.61178 17.4685 8.99458C17.4685 9.37739 17.2351 9.68363 16.8071 9.68363C16.418 9.68363 16.1457 9.41567 16.1457 8.99458C16.1457 8.61178 16.418 8.34381 16.8071 8.34381ZM14.0448 8.61178V8.99458H14.395C14.6673 8.99458 14.6673 8.61178 14.395 8.61178H14.0448ZM15.2509 8.61178V8.9563H15.601C15.7177 8.9563 15.7956 8.91802 15.7956 8.80318C15.7956 8.68834 15.7177 8.61178 15.601 8.61178H15.2509ZM16.8071 8.57349C16.5737 8.57349 16.418 8.7649 16.418 8.99458C16.418 9.22426 16.5737 9.41567 16.8071 9.41567C17.0794 9.41567 17.1962 9.22426 17.1962 8.99458C17.1962 8.7649 17.0794 8.57349 16.8071 8.57349Z" fill="#55597D"/>
<path fill-rule="evenodd" clip-rule="evenodd" d="M3.42369 11.5978C2.7623 11.6744 2.02309 11.6361 1.51732 11.1767C1.08936 10.7556 0.972641 10.1431 0.972641 9.56893V7.61662C0.972641 6.851 0.739207 6.2768 0 6.16195V5.4729C0.739207 5.35806 0.972641 4.74557 0.972641 4.01824V2.06593C0.972641 1.49172 1.08936 0.840954 1.51732 0.458149C2.02309 -0.0394989 2.7623 -0.0394989 3.42369 0.0370622V0.726113C2.52887 0.649552 2.17871 1.1472 2.17871 2.14249V4.01824C2.17871 4.32449 2.17871 4.78385 2.062 5.0901C1.90638 5.39634 1.51732 5.62603 1.16717 5.81743C1.51732 6.00883 1.90638 6.23852 2.062 6.54476C2.17871 6.851 2.17871 7.31037 2.17871 7.61662V9.49236C2.17871 10.5642 2.48996 10.9087 3.42369 10.8705V11.5978Z" fill="#55597D"/>
<defs>
<linearGradient id="paint0_linear_561_9585" x1="13.0416" y1="9.05259" x2="18.2886" y2="9.05259" gradientUnits="userSpaceOnUse">
<stop stop-color="#4CA5FF"/>
<stop offset="1" stop-color="#B673F8"/>
</linearGradient>
</defs>
</svg>
