<svg width="18" height="18" viewBox="0 0 18 18" fill="none" xmlns="http://www.w3.org/2000/svg">
<path fill-rule="evenodd" clip-rule="evenodd" d="M7.24596 8.35835C6.88138 8.35835 6.5931 8.64169 6.5931 9.00002C6.5931 9.35002 6.88138 9.64169 7.24596 9.64169H12.3332V13.625C12.3332 15.6667 10.6459 17.3334 8.56016 17.3334H4.43104C2.35376 17.3334 0.666504 15.675 0.666504 13.6334V4.37502C0.666504 2.32502 2.36224 0.666687 4.43952 0.666687H8.57711C10.6459 0.666687 12.3332 2.32502 12.3332 4.36669V8.35835H7.24596ZM15.3583 6.11685L17.7917 8.54185C17.9167 8.66685 17.9833 8.82519 17.9833 9.00019C17.9833 9.16685 17.9167 9.33352 17.7917 9.45019L15.3583 11.8752C15.2333 12.0002 15.0667 12.0669 14.9083 12.0669C14.7417 12.0669 14.575 12.0002 14.45 11.8752C14.2 11.6252 14.2 11.2169 14.45 10.9669L15.7833 9.64185H12.3333V8.35852H15.7833L14.45 7.03352C14.2 6.78352 14.2 6.37519 14.45 6.12519C14.7 5.86685 15.1083 5.86685 15.3583 6.11685Z" fill="#55597D"/>
</svg>
