<svg width="15" height="14" viewBox="0 0 15 14" fill="none" xmlns="http://www.w3.org/2000/svg">
<g clip-path="url(#clip0_492_7986)">
<path fill-rule="evenodd" clip-rule="evenodd" d="M5.27616 1.16673H10.7187C12.702 1.16673 13.8337 2.28673 13.8337 4.27589V9.72423C13.8337 11.7017 12.7078 12.8334 10.7245 12.8334H5.27616C3.28699 12.8334 2.16699 11.7017 2.16699 9.72423V4.27589C2.16699 2.28673 3.28699 1.16673 5.27616 1.16673ZM8.47866 7.48423H10.1353C10.4037 7.47839 10.6195 7.26256 10.6195 6.99423C10.6195 6.72589 10.4037 6.51006 10.1353 6.51006H8.47866V4.86506C8.47866 4.59673 8.26283 4.38089 7.99449 4.38089C7.72616 4.38089 7.51033 4.59673 7.51033 4.86506V6.51006H5.85949C5.73116 6.51006 5.60866 6.56256 5.51533 6.65006C5.42783 6.74339 5.37533 6.86531 5.37533 6.99423C5.37533 7.26256 5.59116 7.47839 5.85949 7.48423H7.51033V9.13506C7.51033 9.40339 7.72616 9.61922 7.99449 9.61922C8.26283 9.61922 8.47866 9.40339 8.47866 9.13506V7.48423Z" fill="white"/>
</g>
<defs>
<clipPath id="clip0_492_7986">
<rect width="14" height="14" fill="white" transform="translate(0.5)"/>
</clipPath>
</defs>
</svg>
