<svg width="21" height="16" viewBox="0 0 21 16" fill="none" xmlns="http://www.w3.org/2000/svg">
<path d="M8.25 3.875C7.88533 3.875 7.53559 4.01987 7.27773 4.27773C7.01987 4.53559 6.875 4.88533 6.875 5.25V10.75C6.875 11.1147 7.01987 11.4644 7.27773 11.7223C7.53559 11.9801 7.88533 12.125 8.25 12.125C8.61467 12.125 8.96441 11.9801 9.22227 11.7223C9.48013 11.4644 9.625 11.1147 9.625 10.75C9.625 10.3853 9.48013 10.0356 9.22227 9.77773C8.96441 9.51987 8.61467 9.375 8.25 9.375H2.75C2.38533 9.375 2.03559 9.51987 1.77773 9.77773C1.51987 10.0356 1.375 10.3853 1.375 10.75C1.375 11.1147 1.51987 11.4644 1.77773 11.7223C2.03559 11.9801 2.38533 12.125 2.75 12.125C3.11467 12.125 3.46441 11.9801 3.72227 11.7223C3.98013 11.4644 4.125 11.1147 4.125 10.75V5.25C4.125 4.88533 3.98013 4.53559 3.72227 4.27773C3.46441 4.01987 3.11467 3.875 2.75 3.875C2.38533 3.875 2.03559 4.01987 1.77773 4.27773C1.51987 4.53559 1.375 4.88533 1.375 5.25C1.375 5.61467 1.51987 5.96441 1.77773 6.22227C2.03559 6.48013 2.38533 6.625 2.75 6.625H8.25C8.61467 6.625 8.96441 6.48013 9.22227 6.22227C9.48013 5.96441 9.625 5.61467 9.625 5.25C9.625 4.88533 9.48013 4.53559 9.22227 4.27773C8.96441 4.01987 8.61467 3.875 8.25 3.875Z" stroke="#ADB3CC" stroke-linecap="round" stroke-linejoin="round"/>
<path d="M13.9588 12V3.27273H15.2756V7.44034H15.3821L19.0426 3.27273H20.7003L17.1804 7.2017L20.7131 12H19.1278L16.3068 8.10085L15.2756 9.28551V12H13.9588Z" fill="#ADB3CC"/>
</svg>
